<svg width="933" height="747" viewBox="0 0 933 747" fill="none" xmlns="http://www.w3.org/2000/svg">
<g filter="url(#filter0_d_6_193)">
<path fill-rule="evenodd" clip-rule="evenodd" d="M4 12C4 6.47716 8.47715 2 14 2H915C920.523 2 925 6.47715 925 12V726.298C925 731.821 920.523 736.298 915 736.298H14C8.47715 736.298 4 731.821 4 726.298V12ZM164.718 83.3213C164.718 107.505 145.113 127.11 120.929 127.11C96.7458 127.11 77.1411 107.505 77.1411 83.3213C77.1411 59.1377 96.7458 39.5329 120.929 39.5329C145.113 39.5329 164.718 59.1377 164.718 83.3213ZM120.929 585.204C145.113 585.204 164.718 565.599 164.718 541.415C164.718 517.232 145.113 497.627 120.929 497.627C96.7458 497.627 77.1411 517.232 77.1411 541.415C77.1411 565.599 96.7458 585.204 120.929 585.204ZM164.718 312.368C164.718 336.552 145.113 356.157 120.929 356.157C96.7458 356.157 77.1411 336.552 77.1411 312.368C77.1411 288.185 96.7458 268.58 120.929 268.58C145.113 268.58 164.718 288.185 164.718 312.368ZM349.977 127.11C374.16 127.11 393.765 107.505 393.765 83.3213C393.765 59.1377 374.16 39.5329 349.977 39.5329C325.793 39.5329 306.188 59.1377 306.188 83.3213C306.188 107.505 325.793 127.11 349.977 127.11ZM393.765 541.415C393.765 565.599 374.16 585.204 349.977 585.204C325.793 585.204 306.188 565.599 306.188 541.415C306.188 517.232 325.793 497.627 349.977 497.627C374.16 497.627 393.765 517.232 393.765 541.415ZM349.977 356.157C374.16 356.157 393.765 336.552 393.765 312.368C393.765 288.185 374.16 268.58 349.977 268.58C325.793 268.58 306.188 288.185 306.188 312.368C306.188 336.552 325.793 356.157 349.977 356.157ZM622.812 83.3213C622.812 107.505 603.207 127.11 579.023 127.11C554.84 127.11 535.235 107.505 535.235 83.3213C535.235 59.1377 554.84 39.5329 579.023 39.5329C603.207 39.5329 622.812 59.1377 622.812 83.3213ZM579.023 585.204C603.207 585.204 622.812 565.599 622.812 541.415C622.812 517.232 603.207 497.627 579.023 497.627C554.84 497.627 535.235 517.232 535.235 541.415C535.235 565.599 554.84 585.204 579.023 585.204ZM622.812 312.368C622.812 336.552 603.207 356.157 579.023 356.157C554.84 356.157 535.235 336.552 535.235 312.368C535.235 288.185 554.84 268.58 579.023 268.58C603.207 268.58 622.812 288.185 622.812 312.368ZM120.929 241.633C145.113 241.633 164.718 222.029 164.718 197.845C164.718 173.661 145.113 154.056 120.929 154.056C96.7458 154.056 77.1411 173.661 77.1411 197.845C77.1411 222.029 96.7458 241.633 120.929 241.633ZM164.718 655.939C164.718 680.122 145.113 699.727 120.929 699.727C96.7458 699.727 77.1411 680.122 77.1411 655.939C77.1411 631.755 96.7458 612.15 120.929 612.15C145.113 612.15 164.718 631.755 164.718 655.939ZM120.929 470.68C145.113 470.68 164.718 451.076 164.718 426.892C164.718 402.708 145.113 383.103 120.929 383.103C96.7458 383.103 77.1411 402.708 77.1411 426.892C77.1411 451.076 96.7458 470.68 120.929 470.68ZM393.765 197.845C393.765 222.029 374.16 241.633 349.977 241.633C325.793 241.633 306.188 222.029 306.188 197.845C306.188 173.661 325.793 154.056 349.977 154.056C374.16 154.056 393.765 173.661 393.765 197.845ZM349.977 699.727C374.16 699.727 393.765 680.122 393.765 655.939C393.765 631.755 374.16 612.15 349.977 612.15C325.793 612.15 306.188 631.755 306.188 655.939C306.188 680.122 325.793 699.727 349.977 699.727ZM393.765 426.892C393.765 451.076 374.16 470.68 349.977 470.68C325.793 470.68 306.188 451.076 306.188 426.892C306.188 402.708 325.793 383.103 349.977 383.103C374.16 383.103 393.765 402.708 393.765 426.892ZM579.023 241.633C603.207 241.633 622.812 222.029 622.812 197.845C622.812 173.661 603.207 154.056 579.023 154.056C554.84 154.056 535.235 173.661 535.235 197.845C535.235 222.029 554.84 241.633 579.023 241.633ZM622.812 655.939C622.812 680.122 603.207 699.727 579.023 699.727C554.84 699.727 535.235 680.122 535.235 655.939C535.235 631.755 554.84 612.15 579.023 612.15C603.207 612.15 622.812 631.755 622.812 655.939ZM579.023 470.68C603.207 470.68 622.812 451.076 622.812 426.892C622.812 402.708 603.207 383.103 579.023 383.103C554.84 383.103 535.235 402.708 535.235 426.892C535.235 451.076 554.84 470.68 579.023 470.68ZM279.241 83.3213C279.241 107.505 259.637 127.11 235.453 127.11C211.269 127.11 191.665 107.505 191.665 83.3213C191.665 59.1377 211.269 39.5329 235.453 39.5329C259.637 39.5329 279.241 59.1377 279.241 83.3213ZM235.453 585.204C259.637 585.204 279.241 565.599 279.241 541.415C279.241 517.232 259.637 497.627 235.453 497.627C211.269 497.627 191.665 517.232 191.665 541.415C191.665 565.599 211.269 585.204 235.453 585.204ZM279.241 312.368C279.241 336.552 259.637 356.157 235.453 356.157C211.269 356.157 191.665 336.552 191.665 312.368C191.665 288.185 211.269 268.58 235.453 268.58C259.637 268.58 279.241 288.185 279.241 312.368ZM464.5 127.11C488.684 127.11 508.288 107.505 508.288 83.3213C508.288 59.1377 488.684 39.5329 464.5 39.5329C440.316 39.5329 420.712 59.1377 420.712 83.3213C420.712 107.505 440.316 127.11 464.5 127.11ZM508.288 541.415C508.288 565.599 488.684 585.204 464.5 585.204C440.316 585.204 420.712 565.599 420.712 541.415C420.712 517.232 440.316 497.627 464.5 497.627C488.684 497.627 508.288 517.232 508.288 541.415ZM464.5 356.157C488.684 356.157 508.288 336.552 508.288 312.368C508.288 288.185 488.684 268.58 464.5 268.58C440.316 268.58 420.712 288.185 420.712 312.368C420.712 336.552 440.316 356.157 464.5 356.157ZM737.335 83.3213C737.335 107.505 717.731 127.11 693.547 127.11C669.363 127.11 649.759 107.505 649.759 83.3213C649.759 59.1377 669.363 39.5329 693.547 39.5329C717.731 39.5329 737.335 59.1377 737.335 83.3213ZM693.547 585.204C717.731 585.204 737.335 565.599 737.335 541.415C737.335 517.232 717.731 497.627 693.547 497.627C669.363 497.627 649.759 517.232 649.759 541.415C649.759 565.599 669.363 585.204 693.547 585.204ZM737.335 312.368C737.335 336.552 717.731 356.157 693.547 356.157C669.363 356.157 649.759 336.552 649.759 312.368C649.759 288.185 669.363 268.58 693.547 268.58C717.731 268.58 737.335 288.185 737.335 312.368ZM808.07 127.11C832.254 127.11 851.859 107.505 851.859 83.3213C851.859 59.1377 832.254 39.5329 808.07 39.5329C783.887 39.5329 764.282 59.1377 764.282 83.3213C764.282 107.505 783.887 127.11 808.07 127.11ZM851.859 541.415C851.859 565.599 832.254 585.204 808.07 585.204C783.887 585.204 764.282 565.599 764.282 541.415C764.282 517.232 783.887 497.627 808.07 497.627C832.254 497.627 851.859 517.232 851.859 541.415ZM808.07 356.157C832.254 356.157 851.859 336.552 851.859 312.368C851.859 288.185 832.254 268.58 808.07 268.58C783.887 268.58 764.282 288.185 764.282 312.368C764.282 336.552 783.887 356.157 808.07 356.157ZM279.241 197.845C279.241 222.029 259.637 241.633 235.453 241.633C211.269 241.633 191.665 222.029 191.665 197.845C191.665 173.661 211.269 154.056 235.453 154.056C259.637 154.056 279.241 173.661 279.241 197.845ZM235.453 699.727C259.637 699.727 279.241 680.122 279.241 655.939C279.241 631.755 259.637 612.15 235.453 612.15C211.269 612.15 191.665 631.755 191.665 655.939C191.665 680.122 211.269 699.727 235.453 699.727ZM279.241 426.892C279.241 451.076 259.637 470.68 235.453 470.68C211.269 470.68 191.665 451.076 191.665 426.892C191.665 402.708 211.269 383.103 235.453 383.103C259.637 383.103 279.241 402.708 279.241 426.892ZM464.5 241.633C488.684 241.633 508.288 222.029 508.288 197.845C508.288 173.661 488.684 154.056 464.5 154.056C440.316 154.056 420.712 173.661 420.712 197.845C420.712 222.029 440.316 241.633 464.5 241.633ZM508.288 655.939C508.288 680.122 488.684 699.727 464.5 699.727C440.316 699.727 420.712 680.122 420.712 655.939C420.712 631.755 440.316 612.15 464.5 612.15C488.684 612.15 508.288 631.755 508.288 655.939ZM464.5 470.68C488.684 470.68 508.288 451.076 508.288 426.892C508.288 402.708 488.684 383.103 464.5 383.103C440.316 383.103 420.712 402.708 420.712 426.892C420.712 451.076 440.316 470.68 464.5 470.68ZM737.335 197.845C737.335 222.029 717.731 241.633 693.547 241.633C669.363 241.633 649.759 222.029 649.759 197.845C649.759 173.661 669.363 154.056 693.547 154.056C717.731 154.056 737.335 173.661 737.335 197.845ZM693.547 699.727C717.731 699.727 737.335 680.122 737.335 655.939C737.335 631.755 717.731 612.15 693.547 612.15C669.363 612.15 649.759 631.755 649.759 655.939C649.759 680.122 669.363 699.727 693.547 699.727ZM737.335 426.892C737.335 451.076 717.731 470.68 693.547 470.68C669.363 470.68 649.759 451.076 649.759 426.892C649.759 402.708 669.363 383.103 693.547 383.103C717.731 383.103 737.335 402.708 737.335 426.892ZM808.07 241.633C832.254 241.633 851.859 222.029 851.859 197.845C851.859 173.661 832.254 154.056 808.07 154.056C783.887 154.056 764.282 173.661 764.282 197.845C764.282 222.029 783.887 241.633 808.07 241.633ZM851.859 655.939C851.859 680.122 832.254 699.727 808.07 699.727C783.887 699.727 764.282 680.122 764.282 655.939C764.282 631.755 783.887 612.15 808.07 612.15C832.254 612.15 851.859 631.755 851.859 655.939ZM808.07 470.68C832.254 470.68 851.859 451.076 851.859 426.892C851.859 402.708 832.254 383.103 808.07 383.103C783.887 383.103 764.282 402.708 764.282 426.892C764.282 451.076 783.887 470.68 808.07 470.68Z" fill="#617581"/>
</g>
<defs>
<filter id="filter0_d_6_193" x="0" y="0" width="933" height="746.298" filterUnits="userSpaceOnUse" color-interpolation-filters="sRGB">
<feFlood flood-opacity="0" result="BackgroundImageFix"/>
<feColorMatrix in="SourceAlpha" type="matrix" values="0 0 0 0 0 0 0 0 0 0 0 0 0 0 0 0 0 0 127 0" result="hardAlpha"/>
<feOffset dx="2" dy="4"/>
<feGaussianBlur stdDeviation="3"/>
<feComposite in2="hardAlpha" operator="out"/>
<feColorMatrix type="matrix" values="0 0 0 0 0 0 0 0 0 0 0 0 0 0 0 0 0 0 0.25 0"/>
<feBlend mode="normal" in2="BackgroundImageFix" result="effect1_dropShadow_6_193"/>
<feBlend mode="normal" in="SourceGraphic" in2="effect1_dropShadow_6_193" result="shape"/>
</filter>
</defs>
</svg>
