<svg width="17" height="25" viewBox="0 0 17 25" fill="none" xmlns="http://www.w3.org/2000/svg">
<path d="M15.9939 3.12349C16.6144 2.5746 16.6724 1.62663 16.1235 1.00614C15.5746 0.38565 14.6266 0.327611 14.0061 0.876505L15.9939 3.12349ZM2 13.5L1.00614 12.3765C0.670835 12.6731 0.485539 13.104 0.500881 13.5514C0.516223 13.9988 0.730599 14.416 1.08543 14.6889L2 13.5ZM14.0854 24.6889C14.7421 25.194 15.6838 25.0712 16.1889 24.4146C16.694 23.7579 16.5712 22.8162 15.9146 22.3111L14.0854 24.6889ZM14.0061 0.876505L1.00614 12.3765L2.99386 14.6235L15.9939 3.12349L14.0061 0.876505ZM1.08543 14.6889L14.0854 24.6889L15.9146 22.3111L2.91457 12.3111L1.08543 14.6889Z" fill="#6E6B6B"/>
</svg>