<svg width="41" height="36" viewBox="0 0 41 36" fill="none" xmlns="http://www.w3.org/2000/svg">
<path d="M25.5739 5.9349C26.2744 6.37727 27.2008 6.16808 27.6432 5.46766C28.0855 4.76723 27.8763 3.84081 27.1759 3.39843L25.5739 5.9349ZM27.0735 32.994C27.8066 32.6082 28.0881 31.7011 27.7023 30.968C27.3165 30.235 26.4094 29.9534 25.6763 30.3393L27.0735 32.994ZM26.3749 4.66667C27.1759 3.39843 27.1753 3.39808 27.1747 3.3977C27.1745 3.39754 27.1739 3.39713 27.1734 3.39682C27.1724 3.39619 27.1712 3.39547 27.1699 3.39466C27.1673 3.39303 27.1641 3.39105 27.1604 3.38871C27.1529 3.38404 27.143 3.37796 27.1309 3.37054C27.1067 3.35569 27.0733 3.33548 27.0311 3.31045C26.9467 3.26042 26.8269 3.19108 26.6742 3.10694C26.3692 2.93877 25.9316 2.71072 25.3824 2.45916C24.2869 1.95742 22.7303 1.35437 20.8822 0.951143C17.1847 0.144418 12.2124 0.121778 7.5099 3.44121L9.23995 5.89212C13.0374 3.21156 17.0652 3.18892 20.2427 3.88219C21.8321 4.22896 23.1817 4.75091 24.1331 5.18668C24.6073 5.40386 24.9783 5.59769 25.226 5.73421C25.3497 5.80241 25.4423 5.85612 25.5012 5.89104C25.5307 5.9085 25.5517 5.92125 25.5639 5.92874C25.57 5.93249 25.5739 5.93492 25.5756 5.93597C25.5765 5.93649 25.5767 5.93667 25.5765 5.9365C25.5763 5.93641 25.5761 5.93623 25.5756 5.93597C25.5754 5.93583 25.575 5.93557 25.5749 5.9355C25.5744 5.93521 25.5739 5.9349 26.3749 4.66667ZM7.5099 3.44121C2.75027 6.80096 0.499975 12.8339 0.5 18.5416C0.500025 24.2347 2.74814 30.0969 7.61438 32.9596L9.13548 30.3738C5.5019 28.2363 3.50002 23.5986 3.5 18.5416C3.49998 13.4994 5.49959 8.53237 9.23995 5.89212L7.5099 3.44121ZM7.61438 32.9596C12.2818 35.7052 17.1853 35.6803 20.8307 35.0175C22.6599 34.6849 24.2035 34.1869 25.2926 33.7712C25.8383 33.5629 26.2731 33.3741 26.5763 33.2348C26.7279 33.1651 26.8469 33.1078 26.9306 33.0664C26.9724 33.0458 27.0055 33.0291 27.0294 33.0169C27.0414 33.0107 27.051 33.0058 27.0584 33.0019C27.0621 33 27.0652 32.9984 27.0677 32.9971C27.069 32.9964 27.0701 32.9958 27.0711 32.9953C27.0716 32.9951 27.0722 32.9948 27.0724 32.9946C27.073 32.9943 27.0735 32.994 26.3749 31.6667C25.6763 30.3393 25.6768 30.339 25.6772 30.3388C25.6773 30.3388 25.6777 30.3385 25.6779 30.3384C25.6783 30.3382 25.6785 30.3381 25.6786 30.3381C25.6789 30.3379 25.6785 30.3381 25.6776 30.3386C25.6758 30.3395 25.6717 30.3416 25.6654 30.3448C25.6529 30.3512 25.6316 30.362 25.6018 30.3768C25.5421 30.4062 25.4487 30.4514 25.324 30.5087C25.0744 30.6233 24.7006 30.7861 24.2228 30.9684C23.265 31.334 21.9024 31.7735 20.294 32.0659C17.0644 32.6531 12.9679 32.6282 9.13548 30.3738L7.61438 32.9596Z" fill="#666666"/>
<path d="M16 18.2609H39M39 18.2609L32 13M39 18.2609L32 24" stroke="#666666" stroke-width="3" stroke-linecap="round" stroke-linejoin="round"/>
</svg>
