<svg width="98" height="98" viewBox="0 0 98 98" fill="none" xmlns="http://www.w3.org/2000/svg">
<circle cx="47.79" cy="47.79" r="32.2133" fill="url(#paint0_radial_6_587)"/>
<g filter="url(#filter0_d_6_587)">
<path fill-rule="evenodd" clip-rule="evenodd" d="M47.79 91.58C71.9745 91.58 91.58 71.9745 91.58 47.79C91.58 23.6055 71.9745 4 47.79 4C23.6055 4 4 23.6055 4 47.79C4 71.9745 23.6055 91.58 47.79 91.58ZM47.79 80.0032C65.5809 80.0032 80.0033 65.5808 80.0033 47.7899C80.0033 29.999 65.5809 15.5766 47.79 15.5766C29.999 15.5766 15.5766 29.999 15.5766 47.7899C15.5766 65.5808 29.999 80.0032 47.79 80.0032Z" fill="#DE5050"/>
</g>
<defs>
<filter id="filter0_d_6_587" x="0" y="0" width="97.58" height="97.5801" filterUnits="userSpaceOnUse" color-interpolation-filters="sRGB">
<feFlood flood-opacity="0" result="BackgroundImageFix"/>
<feColorMatrix in="SourceAlpha" type="matrix" values="0 0 0 0 0 0 0 0 0 0 0 0 0 0 0 0 0 0 127 0" result="hardAlpha"/>
<feOffset dx="1" dy="1"/>
<feGaussianBlur stdDeviation="2.5"/>
<feComposite in2="hardAlpha" operator="out"/>
<feColorMatrix type="matrix" values="0 0 0 0 0 0 0 0 0 0 0 0 0 0 0 0 0 0 0.25 0"/>
<feBlend mode="normal" in2="BackgroundImageFix" result="effect1_dropShadow_6_587"/>
<feBlend mode="normal" in="SourceGraphic" in2="effect1_dropShadow_6_587" result="shape"/>
</filter>
<radialGradient id="paint0_radial_6_587" cx="0" cy="0" r="1" gradientUnits="userSpaceOnUse" gradientTransform="translate(47.79 47.79) rotate(101.482) scale(32.8712)">
<stop stop-color="#E17B6D"/>
<stop offset="1" stop-color="#F3624E"/>
</radialGradient>
</defs>
</svg>
